<svg xmlns="http://www.w3.org/2000/svg" width="107.214" height="27.45" viewBox="0 0 107.214 27.45">
  <g id="lewagon" transform="translate(-1.5 -2.5)">
    <path id="Path_4" data-name="Path 4" d="M3.267,2.5H27.184A1.854,1.854,0,0,1,28.95,4.414V28.036a1.84,1.84,0,0,1-1.767,1.914H3.267A1.854,1.854,0,0,1,1.5,28.036V4.414A1.854,1.854,0,0,1,3.267,2.5Z" fill="#e60f05"/>
    <g id="Group_22" data-name="Group 22" transform="translate(6.359 9.676)">
      <path id="Path_5" data-name="Path 5" d="M83.335,84.13a1.574,1.574,0,0,0-.82-.442,1.73,1.73,0,0,0-.926.084,1.512,1.512,0,0,0-.715.589,1.623,1.623,0,0,0-.273.883,1.509,1.509,0,0,0,.126.61,1.728,1.728,0,0,0,.337.526,1.258,1.258,0,0,0,.526.337,1.509,1.509,0,0,0,.61.126,1.466,1.466,0,0,0,.883-.273,1.644,1.644,0,0,0,.589-.715,1.547,1.547,0,0,0,.084-.926A1.417,1.417,0,0,0,83.335,84.13ZM82.22,86.045a.778.778,0,0,1,0-1.557.779.779,0,1,1,0,1.557Z" transform="translate(-68.82 -73.763)" fill="#fff"/>
      <path id="Path_6" data-name="Path 6" d="M41.933,75.578H41.47a1,1,0,0,1-.82-.4,3.555,3.555,0,0,0-1.2-.883A3.448,3.448,0,0,0,38,74H25.126a.3.3,0,0,0-.126.042c-.042.021-.063.042-.105.063a.46.46,0,0,0-.063.105.3.3,0,0,0-.042.126v2.125c0,.231-.189.147-.189.526v.21a.36.36,0,0,0,.379.4H25.4a.207.207,0,0,0,.21-.21,2.356,2.356,0,1,1,4.712,0,.177.177,0,0,0,.189.189h4.9a.2.2,0,0,0,.21-.21,2.366,2.366,0,1,1,4.733,0,.2.2,0,0,0,.21.21h1.388a.43.43,0,0,0,.4-.4V76C42.311,75.725,42.185,75.578,41.933,75.578Z" transform="translate(-24.6 -66.136)" fill="#fff"/>
      <path id="Path_7" data-name="Path 7" d="M35.635,84.13a1.574,1.574,0,0,0-.82-.442,1.73,1.73,0,0,0-.926.084,1.512,1.512,0,0,0-.715.589,1.623,1.623,0,0,0-.273.883,1.509,1.509,0,0,0,.126.61,1.728,1.728,0,0,0,.337.526,1.258,1.258,0,0,0,.526.337,1.509,1.509,0,0,0,.61.126,1.466,1.466,0,0,0,.883-.273,1.644,1.644,0,0,0,.589-.715,1.547,1.547,0,0,0,.084-.926A1.417,1.417,0,0,0,35.635,84.13ZM34.52,86.045a.778.778,0,1,1,0-1.557.779.779,0,1,1,0,1.557Z" transform="translate(-31.154 -73.763)" fill="#fff"/>
      <path id="Path_8" data-name="Path 8" d="M25.584,43.28a.21.21,0,0,0,.105.084.267.267,0,0,0,.126.021H38.689A4.3,4.3,0,0,1,41.7,44.563c.126.126.294.4.547.4H42.5c.126,0,.168-.063.168-.21v-1.83a5.966,5.966,0,0,0-4.207-5.637c-2.756-1.094-9.318-.673-11.969.021a1.09,1.09,0,0,0-.989,1.115v4.207l.021.4a.328.328,0,0,0,.063.252ZM36.27,38.863c0-.126.042-.21.21-.21h.82c1.977,0,3.324,1.346,4.06,3.345a.187.187,0,0,1-.189.273H36.48a.225.225,0,0,1-.21-.21Zm-4.8,0a.126.126,0,0,1,.021-.084c0-.021.021-.042.042-.063s.042-.042.063-.042.042-.021.084-.021h3.471a.2.2,0,0,1,.21.21v3.176a.211.211,0,0,1-.21.21H31.663a.188.188,0,0,1-.21-.21V38.863Zm-4.859,0a.183.183,0,0,1,.189-.21h3.555a.194.194,0,0,1,.21.189V42.06a.192.192,0,0,1-.21.189H26.8a.191.191,0,0,1-.189-.21Z" transform="translate(-25.311 -36.615)" fill="#fff"/>
    </g>
    <path id="Path_9" data-name="Path 9" d="M165.568,37.9a.077.077,0,0,0-.063.021.045.045,0,0,0-.042.042c-.021.021-.021.042-.042.042,0,.021-.021.042-.021.063V47.45a2.915,2.915,0,0,0,.968,2.461,3.615,3.615,0,0,0,3.092.4c.042,0,.063-.021.084-.063a.161.161,0,0,0,.042-.105l-.021-1.6a.077.077,0,0,0-.021-.063c0-.021-.021-.042-.042-.063a.077.077,0,0,0-.063-.021h-.063a1.367,1.367,0,0,1-1.157-.168,1.523,1.523,0,0,1-.421-1.262v-8.9a.144.144,0,0,0-.147-.147h-2.082Z" transform="translate(-129.424 -27.954)" fill="#1b1a21"/>
    <path id="Path_10" data-name="Path 10" d="M191.691,50.7a4.384,4.384,0,0,0-3.387,1.43,5.44,5.44,0,0,0,0,7.068,4.5,4.5,0,0,0,3.429,1.409,4.636,4.636,0,0,0,2.819-.883,4.422,4.422,0,0,0,1.641-2.335v-.063c0-.021-.021-.042-.021-.063-.021-.021-.021-.042-.042-.042s-.042-.021-.063-.021h-2.125a.126.126,0,0,0-.084.021c-.021.021-.042.042-.042.063a1.686,1.686,0,0,1-.778.883,2.343,2.343,0,0,1-1.241.337,2.223,2.223,0,0,1-1.662-.61,2.447,2.447,0,0,1-.715-1.451V56.4h6.836c.042,0,.063-.021.105-.042a.161.161,0,0,0,.042-.105l.021-.652a5.033,5.033,0,0,0-1.283-3.492A4.632,4.632,0,0,0,191.691,50.7Zm2.251,3.849H189.4l.021-.042a2.351,2.351,0,0,1,.736-1.262,2.2,2.2,0,0,1,1.557-.547,2.165,2.165,0,0,1,2.251,1.809Z" transform="translate(-146.48 -38.061)" fill="#1b1a21"/>
    <path id="Path_11" data-name="Path 11" d="M290.139,58.53a2.608,2.608,0,1,1,2.608-2.608A2.608,2.608,0,0,1,290.139,58.53Zm0-7.53a4.921,4.921,0,0,0-4.544,3.029,4.9,4.9,0,0,0,1.073,5.343,4.9,4.9,0,0,0,8.372-3.45A4.91,4.91,0,0,0,290.139,51Zm13.441,1.031A3.3,3.3,0,0,0,300.972,51a3.854,3.854,0,0,0-1.83.421,4.187,4.187,0,0,0-.757.61l-.063.063v-.757a.146.146,0,0,0-.147-.126h-1.935a.149.149,0,0,0-.126.126v9.108a.077.077,0,0,0,.021.063.045.045,0,0,0,.042.042.16.16,0,0,0,.084.042h2.1c.021,0,.084-.021.084-.042.042-.021.042-.063.042-.105v-5.28a2.224,2.224,0,0,1,.526-1.536,1.917,1.917,0,0,1,1.472-.568,1.53,1.53,0,0,1,1.262.5,2.228,2.228,0,0,1,.421,1.43v5.448a.158.158,0,0,0,.021.105.3.3,0,0,0,.126.042h2.061a.161.161,0,0,0,.105-.042l.042-.042c0-.021.021-.042.021-.063V54.723A4.105,4.105,0,0,0,303.581,52.031Zm-21.708,3.7a2.406,2.406,0,1,1-4.8,0,2.377,2.377,0,0,1,2.4-2.608A2.4,2.4,0,0,1,281.873,55.733ZM284,51.21h-1.935a.077.077,0,0,0-.063.021.045.045,0,0,0-.042.042.159.159,0,0,0-.042.084v.862l-.063-.063a3.526,3.526,0,0,0-2.819-1.136c-2.65,0-4.333,2.061-4.333,4.733a4.918,4.918,0,0,0,1.178,3.345,3.986,3.986,0,0,0,3.155,1.367,3.453,3.453,0,0,0,2.671-1.052l.063-.084v.989a2.2,2.2,0,0,1-2.167,2.209,2.172,2.172,0,0,1-2.019-1.2c-.063-.105-.084-.126-.147-.105-.21.105-1.809.947-1.893.989-.042.021-.042.084-.021.126a4.227,4.227,0,0,0,4.1,2.377,4.408,4.408,0,0,0,4.522-4.691V51.337a.084.084,0,0,0-.042-.084c-.042-.021-.063-.042-.105-.042ZM271.313,55.9c0,1.6-.883,2.777-2.419,2.777a2.791,2.791,0,0,1,0-5.532C270.388,53.146,271.313,54.26,271.313,55.9Zm2.146-4.67h-1.935a.356.356,0,0,0-.105.042.126.126,0,0,0-.021.084v.862l-.084-.063a3.53,3.53,0,0,0-2.861-1.136c-2.714,0-4.312,2.1-4.312,4.88s1.6,4.9,4.312,4.9a3.559,3.559,0,0,0,2.861-1.136l.084-.084v.862c0,.042.021.063.021.105a.356.356,0,0,0,.105.042h1.935c.042,0,.084-.021.084-.042.042-.021.042-.063.042-.105V51.358a.084.084,0,0,0-.042-.084C273.522,51.273,273.5,51.231,273.459,51.231Zm-9.234.105c0-.021-.021-.021-.021-.063-.021-.021-.042-.042-.063-.042a.077.077,0,0,0-.063-.021h-2.125a.077.077,0,0,0-.063.021c-.042.021-.042.042-.063.084l-1.872,5.995-1.893-5.974c-.021-.042-.021-.063-.063-.084-.021,0-.042-.021-.084-.021h-2c-.042,0-.063.021-.084.021a.109.109,0,0,0-.042.084l-1.956,6.058-1.914-6.079a.109.109,0,0,0-.042-.084c-.021,0-.063-.021-.084-.021h-2.167a.159.159,0,0,0-.084.021c-.021,0-.021.021-.021.042a.077.077,0,0,0-.021.063v.084l3.176,9.087c0,.021.021.042.042.063a.159.159,0,0,0,.084.021h1.977c.021,0,.021-.021.042-.021a.021.021,0,0,0,.021-.021.073.073,0,0,0,.021-.042l1.977-5.932,1.956,5.911a.16.16,0,0,0,.042.084c.021,0,.063.021.084.021h1.956a.218.218,0,0,0,.084-.021.29.29,0,0,0,.063-.084l3.2-9.066Z" transform="translate(-195.834 -38.298)" fill="#1b1a21"/>
  </g>
</svg>
