<svg xmlns="http://www.w3.org/2000/svg" width="182.688" height="14.3" viewBox="0 0 182.688 14.3">
  <g id="webistry" transform="translate(-403.719 -71.208)">
    <g id="Group_28" data-name="Group 28" transform="translate(403.719 71.208)">
      <g id="Group_23" data-name="Group 23" transform="translate(4.299 9.611)">
        <path id="Path_12" data-name="Path 12" d="M411.739,88.716a1.784,1.784,0,1,1,1.784-1.785A1.784,1.784,0,0,1,411.739,88.716Z" transform="translate(-409.954 -85.148)" fill="#f05f5d"/>
      </g>
      <g id="Group_24" data-name="Group 24" transform="translate(22.349 0)">
        <path id="Path_13" data-name="Path 13" d="M437.918,74.776a1.784,1.784,0,1,1,1.786-1.784A1.784,1.784,0,0,1,437.918,74.776Z" transform="translate(-436.136 -71.208)" fill="#507cbd"/>
      </g>
      <g id="Group_25" data-name="Group 25" transform="translate(16.522 10.732)">
        <path id="Path_14" data-name="Path 14" d="M429.467,90.342a1.784,1.784,0,1,1,1.785-1.784A1.784,1.784,0,0,1,429.467,90.342Z" transform="translate(-427.683 -86.774)" fill="#ed6b52"/>
      </g>
      <g id="Group_26" data-name="Group 26" transform="translate(10.223 4.503)">
        <path id="Path_15" data-name="Path 15" d="M420.331,81.307a1.784,1.784,0,1,1,1.784-1.785A1.784,1.784,0,0,1,420.331,81.307Z" transform="translate(-418.546 -77.739)" fill="#e34b9a"/>
      </g>
      <g id="Group_27" data-name="Group 27" transform="translate(0 4.912)">
        <path id="Path_16" data-name="Path 16" d="M405.5,81.9a1.784,1.784,0,1,1,1.784-1.786A1.784,1.784,0,0,1,405.5,81.9Z" transform="translate(-403.719 -78.333)" fill="#4377a3"/>
      </g>
      <path id="Path_17" data-name="Path 17" d="M410.446,84.066l-2.286-2.5a1.785,1.785,0,0,1-1.427,1.308l2.283,2.5A1.781,1.781,0,0,1,410.446,84.066Z" transform="translate(-404.655 -74.425)" fill="#1186c8"/>
      <path id="Path_18" data-name="Path 18" d="M416.93,80.672l-3.671,3.165a1.776,1.776,0,0,1,1.266,1.466l3.67-3.163a1.781,1.781,0,0,1-1.265-1.467Z" transform="translate(-406.682 -74.147)" fill="#1fc3f3"/>
      <path id="Path_19" data-name="Path 19" d="M427.224,84.98l-4.167-4.124a1.792,1.792,0,0,1-1.364,1.376l4.167,4.123A1.787,1.787,0,0,1,427.224,84.98Z" transform="translate(-409.301 -74.204)" fill="#64cbee"/>
      <path id="Path_20" data-name="Path 20" d="M436.032,75.963a1.775,1.775,0,0,1-1.56-.935l-4.408,8.116c.047,0,.093-.015.143-.015a1.778,1.778,0,0,1,1.56.939l4.408-8.115C436.127,75.953,436.08,75.963,436.032,75.963Z" transform="translate(-411.901 -72.395)" fill="#7cceda"/>
    </g>
    <g id="Group_29" data-name="Group 29" transform="translate(443.004 71.74)">
      <path id="Path_21" data-name="Path 21" d="M479.415,72.2,475.307,85h-2.379l-2.864-8.926-2.878,8.928h-2.381L460.7,72.2h2.419L466,81.667l3.055-9.467h2.013l3.056,9.467,2.9-9.467Z" transform="translate(-460.7 -72.047)" fill="#1b1a21"/>
      <path id="Path_22" data-name="Path 22" d="M503.074,77.518h5.394v2.169h-5.394v3.245h6.22V85h-8.525V72.2h8.524v2.075h-6.219Z" transform="translate(-473.143 -72.047)" fill="#1b1a21"/>
      <path id="Path_23" data-name="Path 23" d="M536.729,81.246c0,1.477-.616,3.761-4.686,3.761h-5.068V72.2h4.607c2.19,0,4.436.825,4.436,3.609a2.688,2.688,0,0,1-1.516,2.477,3.069,3.069,0,0,1,2.227,2.96Zm-7.449-3.82h2.438c.306,0,2,.114,2-1.538,0-1.439-1.227-1.69-2.168-1.69H529.28Zm5.143,3.7c0-1.516-1.5-1.669-2.574-1.669h-2.571v3.532h2.647c1.31,0,2.5-.4,2.5-1.863Z" transform="translate(-481.281 -72.047)" fill="#1b1a21"/>
      <path id="Path_24" data-name="Path 24" d="M554.686,85.007V72.2h2.3V85Z" transform="translate(-489.887 -72.047)" fill="#1b1a21"/>
      <path id="Path_25" data-name="Path 25" d="M580.848,81.56c0,2.131-2.037,3.533-4.415,3.533A7.906,7.906,0,0,1,572.209,84V81.656a6.043,6.043,0,0,0,3.686,1.227c1.323,0,2.65-.288,2.65-1.477,0-2.841-6.51-1.227-6.51-5.7,0-2.611,2.171-3.724,4.569-3.724a7.388,7.388,0,0,1,3.436.883v2.246a5.673,5.673,0,0,0-3.167-.981c-1.208,0-2.532.365-2.532,1.519C574.341,77.988,580.848,76.339,580.848,81.56Z" transform="translate(-495.275 -71.979)" fill="#1b1a21"/>
      <path id="Path_26" data-name="Path 26" d="M607.211,72.2v2.3H603.1v10.5h-2.3v-10.5h-4.091V72.2Z" transform="translate(-502.938 -72.047)" fill="#1b1a21"/>
      <path id="Path_27" data-name="Path 27" d="M635.247,85.007h-2.784L629.409,80.5h-2.072v4.51h-2.3V72.2h4.914c2.958,0,4.741,1.44,4.741,4.108a3.7,3.7,0,0,1-2.8,3.8Zm-5.358-6.624c1.327,0,2.5-.307,2.5-2.014,0-1.729-1.169-2.017-2.5-2.017h-2.552v4.032Z" transform="translate(-511.733 -72.047)" fill="#1b1a21"/>
      <path id="Path_28" data-name="Path 28" d="M658.126,79.517v5.489h-2.3V79.517L650.791,72.2h2.785l3.4,5.2,3.379-5.2h2.782Z" transform="translate(-519.733 -72.047)" fill="#1b1a21"/>
    </g>
  </g>
</svg>
